<svg width="50" height="50" viewBox="0 0 50 50" fill="none" xmlns="http://www.w3.org/2000/svg">
<path d="M30.9526 31.9968H30.5383C30.4662 31.9732 30.3892 31.9598 30.3091 31.9598H21.4845C20.8181 28.2497 19.3086 17.6276 19.309 15.8782C19.309 15.4723 18.9287 15.1672 18.5236 15.1965C18.1184 15.2251 17.8133 15.5765 17.8419 15.9816C17.9277 17.2057 18.0456 18.4795 18.1879 19.7845C14.8122 20.2056 12.1912 23.0926 12.1912 26.5807C12.1912 30.3577 15.2639 33.4304 19.0408 33.4304H20.2585C21.0203 37.5652 21.8183 41.3657 22.4481 44.2256H19.4574C19.0511 44.2256 18.7219 44.5548 18.7219 44.9611C18.7219 45.367 19.0511 45.6962 19.4574 45.6962H22.7754C23.29 47.9839 23.6326 49.3877 23.6452 49.4399C23.726 49.7688 24.0209 49.9999 24.3593 49.9999H24.3608C24.6996 49.9995 24.9944 49.7672 25.0742 49.4376C25.0814 49.4071 25.4217 47.9953 25.9348 45.6962H30.9526C34.7295 45.6962 37.8023 42.6234 37.8023 38.8465C37.8023 35.0696 34.7295 31.9968 30.9526 31.9968ZM19.0408 31.9598C16.0749 31.9598 13.6621 29.5467 13.6621 26.5807C13.6621 23.8467 15.7125 21.5842 18.3561 21.2466C18.7811 24.7657 19.3655 28.4538 19.9915 31.9598H19.0408ZM30.9526 44.2256H26.2594C26.8217 41.653 27.519 38.3262 28.2018 34.7049C28.277 34.3059 28.0145 33.9214 27.6155 33.8462C27.2173 33.7711 26.832 34.0335 26.7564 34.4325C25.871 39.1296 24.9609 43.3295 24.3555 46.0174C23.7043 43.1525 22.7037 38.56 21.7531 33.4304H27.8177C27.8898 33.4541 27.9668 33.4674 28.047 33.4674H30.9526C33.9185 33.4674 36.3313 35.8806 36.3313 38.8465C36.3313 41.8124 33.9185 44.2256 30.9526 44.2256Z" fill="#298A97"/>
<path d="M35.8543 7.46498H30.9551C30.8598 6.05316 30.6633 4.76074 30.2532 3.67203C29.3228 1.20125 27.3949 0 24.3591 0C21.3238 0 19.3958 1.20125 18.465 3.67203C18.0553 4.76074 17.8585 6.05278 17.7635 7.46498H7.96204C7.55577 7.46498 7.22656 7.79419 7.22656 8.20045C7.22656 8.60634 7.55577 8.93555 7.96204 8.93555H17.6971C17.6746 9.81255 17.6743 10.722 17.6743 11.647C17.6743 11.8275 17.6754 12.0094 17.6777 12.1933C17.6823 12.5996 18.0134 12.9211 18.4212 12.92C18.8274 12.9154 19.1528 12.5824 19.1479 12.1761C19.146 11.998 19.1448 11.8217 19.1448 11.647C19.1448 10.7185 19.1452 9.80721 19.1685 8.93555H21.8884V9.058C21.8884 13.9099 23.5664 22.4625 23.6382 22.8241C23.7061 23.1686 24.0082 23.4169 24.3595 23.4169H24.3603C24.712 23.4165 25.0141 23.167 25.0813 22.8222C25.1526 22.4552 26.8303 13.7836 26.8303 9.058C26.8303 7.93266 26.8303 6.86951 26.582 6.05011C26.1608 4.66232 25.1408 4.37088 24.3595 4.37088C23.5779 4.37088 22.5582 4.66232 22.1371 6.05011C22.0108 6.46667 21.9486 6.94618 21.9181 7.46498H19.2371C19.326 6.2191 19.4996 5.09911 19.8418 4.19044C20.3182 2.92397 21.2627 1.47057 24.3591 1.47057C27.4555 1.47057 28.4 2.92397 28.8773 4.19044C29.5734 6.03981 29.5734 8.7635 29.5734 11.647C29.5734 16.143 28.857 22.5357 27.4437 30.6473C27.3739 31.0474 27.6417 31.4281 28.0418 31.498C28.0846 31.5052 28.1269 31.509 28.1689 31.509C28.5198 31.509 28.8303 31.2569 28.8925 30.8994C29.5158 27.3224 30.0049 24.0723 30.3585 21.1647H35.8543C39.6313 21.1647 42.704 18.092 42.704 14.3147C42.704 10.5377 39.6313 7.46498 35.8543 7.46498ZM24.3557 18.4334C23.885 15.5186 23.3589 11.6737 23.3589 9.058C23.3589 9.01718 23.3589 8.97636 23.3589 8.93555H25.3593V9.058C25.3597 11.6169 24.8283 15.493 24.3557 18.4334ZM23.5443 6.47697C23.69 5.99594 23.888 5.84145 24.3591 5.84145C24.8302 5.84145 25.0282 5.99594 25.1743 6.47697C25.256 6.74706 25.3017 7.08466 25.3273 7.46498H23.391C23.4165 7.08466 23.4623 6.74706 23.5443 6.47697ZM35.8543 19.6941H30.5283C30.8712 16.5737 31.0444 13.8836 31.0444 11.647C31.0444 10.722 31.044 9.81255 31.0215 8.93555H35.8543C38.8206 8.93555 41.2334 11.3487 41.2334 14.3147C41.2334 17.2806 38.8206 19.6941 35.8543 19.6941Z" fill="#298A97"/>
</svg>
