<svg width="26" height="26" viewBox="0 0 26 26" fill="none" xmlns="http://www.w3.org/2000/svg">
<path d="M9.74984 24.1667C10.3481 24.1667 10.8332 23.6816 10.8332 23.0833C10.8332 22.485 10.3481 22 9.74984 22C9.15153 22 8.6665 22.485 8.6665 23.0833C8.6665 23.6816 9.15153 24.1667 9.74984 24.1667Z" stroke="black" stroke-width="2" stroke-linecap="round" stroke-linejoin="round"/>
<path d="M21.6668 23.8333C22.2651 23.8333 22.7502 23.3483 22.7502 22.75C22.7502 22.1517 22.2651 21.6667 21.6668 21.6667C21.0685 21.6667 20.5835 22.1517 20.5835 22.75C20.5835 23.3483 21.0685 23.8333 21.6668 23.8333Z" stroke="black" stroke-width="2" stroke-linecap="round" stroke-linejoin="round"/>
<path d="M1.0835 1.08334H5.41683L8.32016 15.5892C8.41923 16.0879 8.69056 16.536 9.08667 16.8548C9.48278 17.1737 9.97842 17.3431 10.4868 17.3333H21.0168C21.5252 17.3431 22.0209 17.1737 22.417 16.8548C22.8131 16.536 23.0844 16.0879 23.1835 15.5892L24.9168 6.50001H6.50016" stroke="black" stroke-width="2" stroke-linecap="round" stroke-linejoin="round"/>
</svg>
