<svg width="50" height="43" viewBox="0 0 50 43" fill="none" xmlns="http://www.w3.org/2000/svg">
<path d="M44.7898 8.99071C44.7898 9.39024 45.1153 9.714 45.517 9.714L48.303 9.714C48.4367 9.714 48.5454 9.82222 48.5454 9.9551L48.5454 32.9991C48.5454 33.1321 48.4367 33.2402 48.303 33.2402L33.3673 33.2402C32.9656 33.2402 32.6401 33.564 32.6401 33.9635C32.6401 34.363 32.9656 34.6868 33.3673 34.6868L48.3031 34.6868C49.2388 34.6868 49.9999 33.9296 49.9999 32.999L49.9999 9.955C49.9999 9.02432 49.2387 8.26722 48.3031 8.26722L45.5171 8.26722C45.1154 8.26732 44.7898 8.59118 44.7898 8.99071Z" fill="#298A97"/>
<path d="M40.4457 0.981661C40.1412 1.18225 39.8263 1.38964 39.3869 1.50495C39.0552 1.59189 38.9443 1.51709 38.6153 1.29484C38.2575 1.05325 37.7673 0.7223 36.9622 0.7223C36.1281 0.7223 35.6637 1.00769 35.3246 1.21606C35.0428 1.38935 34.8727 1.49387 34.4515 1.49387C34.0303 1.49387 33.8603 1.38935 33.5784 1.21606C33.2393 1.00769 32.7749 0.7223 31.9408 0.7223C31.1066 0.7223 30.6422 1.00769 30.3032 1.21606C30.0213 1.38935 29.8512 1.49387 29.43 1.49387C29.0089 1.49387 28.8388 1.38935 28.557 1.21615C28.2179 1.00769 27.7536 0.7223 26.9194 0.7223C26.0852 0.7223 25.6209 1.00769 25.282 1.21615C25.0002 1.38935 24.83 1.49387 24.409 1.49387C23.988 1.49387 23.8179 1.38935 23.5361 1.21615C23.1971 1.00779 22.7328 0.7223 21.8988 0.722301C21.0647 0.722301 20.6003 1.00769 20.2614 1.21616C19.9796 1.38935 19.8096 1.49387 19.3887 1.49387C19.0707 1.49387 18.7679 1.29153 18.4473 1.07734C17.948 0.74377 17.0188 0.122955 16.0897 1.04723C15.1605 1.9717 15.7847 2.89597 16.1201 3.39254C16.3355 3.71155 16.5388 4.01277 16.5388 4.32915C16.5388 4.74821 16.4337 4.91752 16.2595 5.19796C16.05 5.53522 15.7631 5.99712 15.7631 6.82697C15.7631 7.65683 16.05 8.11862 16.2596 8.45599C16.4337 8.73633 16.5388 8.90554 16.5388 9.3245C16.5388 9.74346 16.4337 9.91268 16.2596 10.193C16.05 10.5303 15.7631 10.9921 15.7631 11.8219C15.7631 12.6518 16.05 13.1136 16.2596 13.4509C16.4337 13.7312 16.5388 13.9004 16.5388 14.3193C16.5388 14.7381 16.4337 14.9074 16.2596 15.1878C16.1376 15.384 15.9899 15.6233 15.8873 15.9519C14.3264 15.6905 12.7463 15.7027 11.1873 15.9901L9.33177 16.3324C8.02006 16.5742 6.68597 16.598 5.36634 16.4032L2.55433 15.9878C1.90502 15.8918 1.26644 16.1017 0.802282 16.5635C0.338121 17.0251 0.127575 17.6603 0.223766 18.3061L0.515758 20.2622C0.574743 20.6574 0.944567 20.9301 1.34193 20.8715C1.7391 20.8128 2.01273 20.4453 1.95443 20.0498L1.66244 18.0936C1.63402 17.9055 1.69564 17.7207 1.8308 17.5863C1.96586 17.4519 2.15179 17.3909 2.34076 17.4188L5.15277 17.8341C6.63168 18.0526 8.12699 18.026 9.59701 17.7549L11.4526 17.4126C12.901 17.1456 14.3698 17.1442 15.8185 17.4081C15.9119 17.8841 16.1063 18.1985 16.2598 18.4454C16.4339 18.7257 16.539 18.8949 16.539 19.3136C16.539 19.7324 16.4339 19.9016 16.2598 20.1819C16.0502 20.5191 15.7633 20.9808 15.7633 21.8106C15.7633 22.6403 16.0502 23.1021 16.2598 23.4392C16.4339 23.7195 16.539 23.8886 16.539 24.3073C16.539 24.6236 16.3356 24.9249 16.1203 25.2438C15.7849 25.7403 15.1607 26.6647 16.0901 27.5888C17.0194 28.513 17.9487 27.8921 18.4479 27.5586C18.7686 27.3444 19.0714 27.142 19.3896 27.142C19.8109 27.142 19.981 27.2467 20.2629 27.4199C20.602 27.6282 21.0663 27.9136 21.9006 27.9136C22.7349 27.9136 23.1993 27.6282 23.5383 27.4199C23.8202 27.2466 23.9903 27.142 24.4115 27.142C24.8327 27.142 25.0027 27.2466 25.2846 27.4199C25.4073 27.4952 25.5468 27.5806 25.7139 27.6591C25.8969 28.9448 25.8716 30.2431 25.6334 31.5217C25.2131 33.5416 24.8495 35.7344 25.2103 37.7846L25.628 40.5822C25.6561 40.7701 25.5947 40.9551 25.4596 41.0895C25.3245 41.2239 25.1386 41.2849 24.9496 41.2571L22.1376 40.8417C20.6586 40.6232 19.1634 40.6498 17.6933 40.921L15.8414 41.2625C14.3843 41.5312 12.9068 41.5312 11.4498 41.2625L9.5976 40.921C8.12758 40.6499 6.63246 40.6232 5.15355 40.8417L2.34086 41.2568C2.15189 41.2846 1.96595 41.2236 1.83099 41.0892C1.69584 40.9548 1.63461 40.7698 1.66254 40.5819L2.08011 37.7849C2.29965 36.314 2.27279 34.8268 2.00033 33.3643L1.65707 31.5221C1.38705 30.0727 1.38705 28.6029 1.65707 27.1537L2.00043 25.3112C2.12855 24.6237 2.20297 23.9212 2.22172 23.2231C2.23226 22.8268 1.91576 22.4913 1.5142 22.4807C1.11273 22.47 0.778551 22.785 0.767907 23.1843C0.75111 23.8073 0.684704 24.4341 0.570446 25.0474L0.227087 26.8899C-0.0756476 28.5141 -0.0757452 30.1614 0.227087 31.7857L0.570349 33.6279C0.813611 34.9328 0.837536 36.2599 0.641443 37.5724L0.223865 40.3695C0.12738 41.0153 0.338318 41.6506 0.802478 42.1123C1.26664 42.5739 1.90521 42.7837 2.55443 42.6878L5.36703 42.2724C6.68656 42.0775 8.02074 42.1014 9.33226 42.3433L11.1845 42.6848C12.8174 42.9859 14.4733 42.9859 16.1064 42.6848L17.9582 42.3433C19.27 42.1014 20.6041 42.0776 21.9238 42.2724L24.7358 42.6878C25.385 42.7838 26.0236 42.574 26.4877 42.1123C26.9519 41.6506 27.1629 41.0152 27.0663 40.3696L26.6487 37.572C26.5055 36.6133 26.481 35.647 26.5722 34.6872L30.1195 34.6872C30.5211 34.6872 30.8466 34.3633 30.8466 33.9639C30.8466 33.5644 30.5211 33.2406 30.1195 33.2406L26.7919 33.2406L27.0631 31.7854C27.2142 30.9745 27.2898 30.1567 27.2898 29.3383C27.2898 28.8591 27.2619 28.3797 27.21 27.9014C27.8669 27.8451 28.2616 27.6028 28.5594 27.4198C28.8412 27.2465 29.0114 27.1419 29.4326 27.1419C29.8537 27.1419 30.0238 27.2465 30.3057 27.4198C30.6448 27.6281 31.109 27.9135 31.9432 27.9135C32.7774 27.9135 33.2416 27.6281 33.5806 27.4197C33.8623 27.2465 34.0326 27.1419 34.4536 27.1419C34.8745 27.1419 35.0447 27.2465 35.3265 27.4197C35.6655 27.628 36.1297 27.9135 36.9639 27.9135C37.798 27.9135 38.2622 27.6281 38.6012 27.4197C38.8829 27.2465 39.053 27.1419 39.474 27.1419C39.7919 27.1419 40.0948 27.3443 40.4154 27.5585C40.9146 27.8921 41.8439 28.513 42.7729 27.5886C43.134 27.2293 43.2605 26.8701 43.2605 26.5359C43.2605 26.0103 42.9476 25.5468 42.7425 25.2433C42.5271 24.9243 42.3238 24.623 42.3238 24.3066C42.3238 23.8875 42.4288 23.7183 42.6031 23.4379C42.8125 23.1006 43.0995 22.6387 43.0995 21.8088C43.0995 20.979 42.8125 20.5172 42.603 20.1798C42.4288 19.8995 42.3238 19.7303 42.3238 19.3113C42.3238 18.8925 42.4288 18.7232 42.603 18.4429C42.8125 18.1056 43.0995 17.6438 43.0995 16.814C43.0995 15.9841 42.8125 15.5223 42.603 15.1851C42.4288 14.9047 42.3238 14.7355 42.3238 14.3166C42.3238 13.8977 42.4288 13.7285 42.603 13.4481C42.8125 13.1109 43.0995 12.6491 43.0995 11.8192C43.0995 10.9895 42.8125 10.5277 42.603 10.1904C42.4288 9.91015 42.3238 9.74093 42.3238 9.32207C42.3238 8.90331 42.4288 8.73409 42.603 8.45385C42.8125 8.11659 43.0995 7.65489 43.0995 6.82513C43.0995 5.99547 42.8125 5.53367 42.603 5.1965C42.4288 4.91626 42.3238 4.74714 42.3238 4.32837C42.3238 4.01209 42.5272 3.71086 42.7425 3.39196C43.0778 2.89539 43.702 1.97102 42.7727 1.04684C41.8061 0.085558 40.9545 0.646437 40.4457 0.981661ZM41.7144 2.04912C41.7705 2.10235 41.7846 2.18657 41.747 2.25408C41.6894 2.35724 41.6015 2.48731 41.5353 2.58542C41.2542 3.00156 40.8695 3.57147 40.8695 4.32847C40.8695 5.15813 41.1564 5.61993 41.366 5.9571C41.5401 6.23734 41.6452 6.40646 41.6452 6.82522C41.6452 7.24399 41.5401 7.41311 41.366 7.69345C41.1564 8.03071 40.8695 8.49251 40.8695 9.32217C40.8695 10.1519 41.1564 10.6137 41.366 10.951C41.5401 11.2312 41.6452 11.4004 41.6452 11.8192C41.6452 12.2381 41.5401 12.4073 41.366 12.6876C41.1564 13.0249 40.8695 13.4867 40.8695 14.3166C40.8695 15.1464 41.1564 15.6082 41.366 15.9455C41.5401 16.2258 41.6452 16.395 41.6452 16.814C41.6452 17.2328 41.5401 17.4021 41.366 17.6824C41.1564 18.0197 40.8695 18.4815 40.8695 19.3113C40.8695 20.1412 41.1564 20.603 41.3659 20.9403C41.5401 21.2207 41.6452 21.3899 41.6452 21.8088C41.6452 22.2279 41.5401 22.3971 41.3659 22.6776C41.1564 23.0148 40.8695 23.4767 40.8695 24.3066C40.8695 25.0638 41.2542 25.6337 41.5353 26.0498C41.6093 26.1595 41.7104 26.3092 41.766 26.4164C41.791 26.4646 41.7809 26.5233 41.7424 26.5616C41.7418 26.5622 41.7412 26.5628 41.7408 26.5633C41.7022 26.6017 41.6431 26.6117 41.5947 26.5868C41.4869 26.5315 41.3366 26.431 41.2264 26.3575C40.808 26.078 40.2351 25.6952 39.4742 25.6952C38.6401 25.6952 38.1757 25.9806 37.8368 26.189C37.555 26.3622 37.385 26.4667 36.9641 26.4667C36.5431 26.4667 36.373 26.3622 36.0912 26.189C35.7522 25.9807 35.2879 25.6952 34.4537 25.6952C33.6196 25.6952 33.1553 25.9806 32.8163 26.189C32.5346 26.3622 32.3644 26.4667 31.9434 26.4667C31.5223 26.4667 31.3522 26.3622 31.0703 26.1889C30.7313 25.9806 30.2669 25.6952 29.4328 25.6952C28.5986 25.6952 28.1342 25.9806 27.7952 26.1889C27.5133 26.3622 27.3432 26.4667 26.922 26.4667C26.5009 26.4667 26.3308 26.3622 26.049 26.1889C25.7099 25.9806 25.2456 25.6952 24.4114 25.6952C23.5772 25.6952 23.1128 25.9806 22.7738 26.1889C22.4919 26.3621 22.3217 26.4667 21.9005 26.4667C21.4792 26.4667 21.3091 26.3621 21.0272 26.1889C20.688 25.9806 20.2237 25.6952 19.3894 25.6952C18.6282 25.6952 18.0553 26.078 17.6369 26.3575C17.5252 26.4321 17.3724 26.5342 17.2643 26.5889C17.2162 26.6133 17.1578 26.604 17.1195 26.5661C17.119 26.5656 17.1184 26.565 17.1179 26.5646C17.0797 26.5266 17.0703 26.4683 17.0949 26.4204C17.15 26.313 17.2526 26.161 17.3275 26.0502C17.6085 25.6341 17.9933 25.0642 17.9933 24.3072C17.9933 23.4775 17.7064 23.0157 17.4968 22.6785C17.3227 22.3983 17.2176 22.2292 17.2176 21.8104C17.2176 21.3916 17.3227 21.2225 17.4968 20.9422C17.7064 20.6049 17.9933 20.1431 17.9933 19.3134C17.9933 18.4836 17.7064 18.0218 17.4968 17.6845C17.3227 17.4043 17.2176 17.2351 17.2176 16.8163C17.2176 16.3975 17.3227 16.2282 17.4968 15.9479C17.7064 15.6106 17.9933 15.1488 17.9933 14.319C17.9933 13.4892 17.7064 13.0273 17.4968 12.6901C17.3227 12.4097 17.2176 12.2405 17.2176 11.8215C17.2176 11.4027 17.3227 11.2335 17.4968 10.9531C17.7064 10.6159 17.9933 10.1541 17.9933 9.32421C17.9933 8.49446 17.7064 8.03256 17.4968 7.69529C17.3227 7.41495 17.2176 7.24574 17.2176 6.82678C17.2176 6.40773 17.3227 6.23851 17.4969 5.95807C17.7064 5.6208 17.9933 5.15891 17.9933 4.32896C17.9933 3.57186 17.6084 3.00185 17.3275 2.58571C17.2535 2.47604 17.1523 2.32635 17.0967 2.21901C17.0717 2.17083 17.0818 2.11216 17.1203 2.07379C17.1209 2.07321 17.1215 2.07262 17.122 2.07214C17.1606 2.03377 17.2197 2.02376 17.2681 2.04863C17.3759 2.1039 17.5262 2.20444 17.6364 2.27798C18.0547 2.55744 18.6277 2.94026 19.3887 2.94026C20.2228 2.94026 20.687 2.65487 21.026 2.44641C21.3078 2.27322 21.4778 2.1687 21.8988 2.1687C22.3198 2.1687 22.4898 2.27322 22.7715 2.44641C23.1106 2.65477 23.5748 2.94026 24.409 2.94026C25.2432 2.94026 25.7075 2.65487 26.0464 2.44641C26.3282 2.27322 26.4984 2.1687 26.9194 2.1687C27.3406 2.1687 27.5106 2.27322 27.7925 2.44651C28.1316 2.65487 28.5958 2.94026 29.43 2.94026C30.2642 2.94026 30.7286 2.65487 31.0676 2.44651C31.3494 2.27321 31.5196 2.1687 31.9408 2.1687C32.362 2.1687 32.532 2.27321 32.8139 2.44651C33.153 2.65487 33.6173 2.94026 34.4515 2.94026C35.2857 2.94026 35.75 2.65487 36.0891 2.44651C36.3709 2.27321 36.5411 2.1687 36.9622 2.1687C37.3203 2.1687 37.5105 2.29711 37.7983 2.49148C38.2151 2.7729 38.7859 3.15834 39.7575 2.90364C40.4291 2.72753 40.9029 2.41553 41.2488 2.18764C41.329 2.1347 41.4264 2.07058 41.5078 2.02279C41.5735 1.98423 41.6567 1.99423 41.7119 2.04659L41.7144 2.04912Z" fill="#298A97"/>
<path d="M33.5463 19.2056C33.5463 18.603 33.0552 18.1145 32.4494 18.1145C31.8436 18.1145 31.3525 18.603 31.3525 19.2056C31.3525 19.8081 31.8436 20.2966 32.4494 20.2966C33.0552 20.2966 33.5463 19.8081 33.5463 19.2056Z" fill="#298A97"/>
<path d="M33.5463 14.3169C33.5463 13.7143 33.0552 13.2258 32.4494 13.2258C31.8436 13.2258 31.3525 13.7143 31.3525 14.3169C31.3525 14.9195 31.8436 15.408 32.4494 15.408C33.0552 15.408 33.5463 14.9195 33.5463 14.3169Z" fill="#298A97"/>
<path d="M33.5463 9.42774C33.5463 8.82516 33.0552 8.33668 32.4494 8.33668C31.8436 8.33668 31.3525 8.82516 31.3525 9.42774C31.3525 10.0303 31.8436 10.5188 32.4494 10.5188C33.0552 10.5188 33.5463 10.0303 33.5463 9.42774Z" fill="#298A97"/>
<path d="M36.9557 21.6499C36.9557 21.0473 36.4646 20.5589 35.8588 20.5589C35.253 20.5589 34.762 21.0473 34.762 21.6499C34.762 22.2525 35.253 22.741 35.8588 22.741C36.4646 22.741 36.9557 22.2525 36.9557 21.6499Z" fill="#298A97"/>
<path d="M36.9557 16.7612C36.9557 16.1587 36.4646 15.6702 35.8588 15.6702C35.253 15.6702 34.762 16.1587 34.762 16.7612C34.762 17.3638 35.253 17.8523 35.8588 17.8523C36.4646 17.8523 36.9557 17.3638 36.9557 16.7612Z" fill="#298A97"/>
<path d="M36.9557 11.8726C36.9557 11.27 36.4646 10.7815 35.8588 10.7815C35.253 10.7815 34.762 11.27 34.762 11.8726C34.762 12.4751 35.253 12.9636 35.8588 12.9636C36.4646 12.9636 36.9557 12.4751 36.9557 11.8726Z" fill="#298A97"/>
<path d="M36.9557 6.9834C36.9557 6.38083 36.4646 5.89234 35.8588 5.89234C35.253 5.89234 34.762 6.38083 34.762 6.9834C34.762 7.58598 35.253 8.07446 35.8588 8.07446C36.4646 8.07446 36.9557 7.58598 36.9557 6.9834Z" fill="#298A97"/>
<path d="M23.2838 21.6499C23.2838 21.0473 22.7927 20.5589 22.187 20.5589C21.5812 20.5589 21.0901 21.0473 21.0901 21.6499C21.0901 22.2525 21.5812 22.741 22.187 22.741C22.7927 22.741 23.2838 22.2525 23.2838 21.6499Z" fill="#298A97"/>
<path d="M23.2838 16.7612C23.2838 16.1587 22.7927 15.6702 22.187 15.6702C21.5812 15.6702 21.0901 16.1587 21.0901 16.7612C21.0901 17.3638 21.5812 17.8523 22.187 17.8523C22.7927 17.8523 23.2838 17.3638 23.2838 16.7612Z" fill="#298A97"/>
<path d="M23.2838 11.8726C23.2838 11.27 22.7927 10.7815 22.187 10.7815C21.5812 10.7815 21.0901 11.27 21.0901 11.8726C21.0901 12.4751 21.5812 12.9636 22.187 12.9636C22.7927 12.9636 23.2838 12.4751 23.2838 11.8726Z" fill="#298A97"/>
<path d="M23.2838 6.9834C23.2838 6.38083 22.7927 5.89234 22.187 5.89234C21.5812 5.89234 21.0901 6.38083 21.0901 6.9834C21.0901 7.58598 21.5812 8.07446 22.187 8.07446C22.7927 8.07446 23.2838 7.58598 23.2838 6.9834Z" fill="#298A97"/>
<path d="M26.7103 19.2056C26.7103 18.603 26.2193 18.1145 25.6135 18.1145C25.0077 18.1145 24.5166 18.603 24.5166 19.2056C24.5166 19.8081 25.0077 20.2966 25.6135 20.2966C26.2193 20.2966 26.7103 19.8081 26.7103 19.2056Z" fill="#298A97"/>
<path d="M26.7103 14.3169C26.7103 13.7143 26.2193 13.2258 25.6135 13.2258C25.0077 13.2258 24.5166 13.7143 24.5166 14.3169C24.5166 14.9195 25.0077 15.408 25.6135 15.408C26.2193 15.408 26.7103 14.9195 26.7103 14.3169Z" fill="#298A97"/>
<path d="M26.7103 9.42774C26.7103 8.82516 26.2193 8.33668 25.6135 8.33668C25.0077 8.33668 24.5166 8.82516 24.5166 9.42774C24.5166 10.0303 25.0077 10.5188 25.6135 10.5188C26.2193 10.5188 26.7103 10.0303 26.7103 9.42774Z" fill="#298A97"/>
<path d="M30.1198 21.6499C30.1198 21.0473 29.6287 20.5589 29.0229 20.5589C28.4171 20.5589 27.926 21.0473 27.926 21.6499C27.926 22.2525 28.4171 22.741 29.0229 22.741C29.6287 22.741 30.1198 22.2525 30.1198 21.6499Z" fill="#298A97"/>
<path d="M30.1198 16.7612C30.1198 16.1587 29.6287 15.6702 29.0229 15.6702C28.4171 15.6702 27.926 16.1587 27.926 16.7612C27.926 17.3638 28.4171 17.8523 29.0229 17.8523C29.6287 17.8523 30.1198 17.3638 30.1198 16.7612Z" fill="#298A97"/>
<path d="M30.1198 11.8726C30.1198 11.27 29.6287 10.7815 29.0229 10.7815C28.4171 10.7815 27.926 11.27 27.926 11.8726C27.926 12.4751 28.4171 12.9636 29.0229 12.9636C29.6287 12.9636 30.1198 12.4751 30.1198 11.8726Z" fill="#298A97"/>
<path d="M30.1198 6.9834C30.1198 6.38083 29.6287 5.89234 29.0229 5.89234C28.4171 5.89234 27.926 6.38083 27.926 6.9834C27.926 7.58598 28.4171 8.07446 29.0229 8.07446C29.6287 8.07446 30.1198 7.58598 30.1198 6.9834Z" fill="#298A97"/>
<path d="M6.52866 34.9689C6.127 34.9689 5.80151 35.2928 5.80151 35.6922C5.80151 36.0917 6.127 36.4155 6.52866 36.4155L7.89829 36.4155C8.29995 36.4155 8.62544 36.0917 8.62544 35.6922C8.62544 35.2928 8.29995 34.9689 7.89829 34.9689L6.52866 34.9689Z" fill="#298A97"/>
<path d="M6.52866 30.7375C6.127 30.7375 5.80151 31.0614 5.80151 31.4608C5.80151 31.8602 6.127 32.1841 6.52866 32.1841L7.89829 32.1841C8.29995 32.1841 8.62544 31.8602 8.62544 31.4608C8.62544 31.0614 8.29995 30.7375 7.89829 30.7375L6.52866 30.7375Z" fill="#298A97"/>
<path d="M6.52866 26.7121C6.127 26.7121 5.80151 27.036 5.80151 27.4354C5.80151 27.8349 6.127 28.1587 6.52866 28.1587L7.89829 28.1587C8.29995 28.1587 8.62544 27.8348 8.62544 27.4354C8.62544 27.0359 8.29995 26.7121 7.89829 26.7121L6.52866 26.7121Z" fill="#298A97"/>
<path d="M6.52866 22.4804C6.127 22.4804 5.80151 22.8043 5.80151 23.2037C5.80151 23.6032 6.127 23.927 6.52866 23.927L7.89829 23.927C8.29995 23.927 8.62544 23.6031 8.62544 23.2037C8.62544 22.8042 8.29995 22.4804 7.89829 22.4804L6.52866 22.4804Z" fill="#298A97"/>
<path d="M12.3685 34.9689C11.9668 34.9689 11.6414 35.2928 11.6414 35.6922C11.6414 36.0917 11.9668 36.4155 12.3685 36.4155L13.7382 36.4155C14.1399 36.4155 14.4654 36.0917 14.4654 35.6922C14.4654 35.2928 14.1399 34.9689 13.7382 34.9689L12.3685 34.9689Z" fill="#298A97"/>
<path d="M12.3685 30.7375C11.9668 30.7375 11.6414 31.0614 11.6414 31.4608C11.6414 31.8602 11.9668 32.1841 12.3685 32.1841L13.7382 32.1841C14.1399 32.1841 14.4654 31.8602 14.4654 31.4608C14.4654 31.0614 14.1399 30.7375 13.7382 30.7375L12.3685 30.7375Z" fill="#298A97"/>
<path d="M11.6414 27.4354C11.6414 27.8349 11.9668 28.1587 12.3685 28.1587L13.7382 28.1587C14.1399 28.1587 14.4654 27.8348 14.4654 27.4354C14.4654 27.0359 14.1399 26.7121 13.7382 26.7121L12.3685 26.7121C11.9669 26.7121 11.6414 27.036 11.6414 27.4354Z" fill="#298A97"/>
<path d="M11.6414 23.204C11.6414 23.6035 11.9668 23.9272 12.3685 23.9272L13.7382 23.9272C14.1399 23.9272 14.4654 23.6034 14.4654 23.204C14.4654 22.8044 14.1399 22.4807 13.7382 22.4807L12.3685 22.4807C11.9669 22.4806 11.6414 22.8044 11.6414 23.204Z" fill="#298A97"/>
<path d="M17.3745 35.6925C17.3745 36.092 17.7 36.4158 18.1017 36.4158L19.4714 36.4158C19.873 36.4158 20.1985 36.0919 20.1985 35.6925C20.1985 35.293 19.873 34.9692 19.4714 34.9692L18.1017 34.9692C17.7 34.9691 17.3745 35.2929 17.3745 35.6925Z" fill="#298A97"/>
<path d="M17.3745 31.4608C17.3745 31.8603 17.7 32.1841 18.1017 32.1841L19.4714 32.1841C19.873 32.1841 20.1985 31.8602 20.1985 31.4608C20.1985 31.0614 19.873 30.7375 19.4714 30.7375L18.1017 30.7375C17.7 30.7375 17.3745 31.0614 17.3745 31.4608Z" fill="#298A97"/>
</svg>
