<svg width="48" height="50" viewBox="0 0 48 50" fill="none" xmlns="http://www.w3.org/2000/svg">
<g clip-path="url(#clip0)">
<path d="M35.6085 39.6122V31.6019C35.6084 30.4013 34.6316 29.4246 33.4311 29.4246H5.34814C4.14756 29.4246 3.1707 30.4013 3.1707 31.6019V39.6122C2.27129 39.9179 1.62207 40.7702 1.62207 41.7717C1.62207 43.0294 2.64531 44.0526 3.90283 44.0526H34.8763C36.1339 44.0526 37.157 43.0293 37.157 41.7717C37.1571 40.7702 36.5079 39.9179 35.6085 39.6122ZM4.63506 31.6018C4.63506 31.2086 4.95488 30.8888 5.34814 30.8888H33.4311C33.8242 30.8888 34.1441 31.2086 34.1441 31.6018V39.4909H4.63506V31.6018ZM34.8762 42.5882H3.90293C3.45283 42.5882 3.08652 42.2219 3.08652 41.7717C3.08652 41.3216 3.45283 40.9553 3.90293 40.9553H34.8764C35.3265 40.9553 35.6928 41.3216 35.6928 41.7717C35.6927 42.2219 35.3265 42.5882 34.8762 42.5882Z" fill="#298A97"/>
<path d="M37.059 32.2322H36.4226V33.6965H37.059C37.887 33.6965 37.887 33.8945 37.887 34.1685V43.9543C37.887 44.6216 37.4381 45.4114 37.059 45.4114H1.72026C1.28784 45.4114 0.692139 44.5671 0.692139 43.9543V34.1686C0.692139 34.0155 0.692139 33.6966 1.72026 33.6966H2.35181V32.2323H1.72026C1.06899 32.2323 0.533154 32.3496 0.127588 32.5808C-0.452686 32.9117 -0.772217 33.4756 -0.772217 34.1688V43.9546C-0.772217 44.5699 -0.519092 45.2743 -0.0950683 45.8387C0.399951 46.498 1.06177 46.876 1.72036 46.876H2.3519V49.9998H3.81626V46.8758H35.6418V49.9998H37.1062V46.8741C38.5523 46.8375 39.3516 45.1356 39.3516 43.9544V34.1686C39.3513 33.4454 39.0535 32.2322 37.059 32.2322Z" fill="#298A97"/>
<path d="M8.59936 33.7944H7.03735V35.2588H8.59936V33.7944Z" fill="#298A97"/>
<path d="M31.8339 33.7944H30.1743V35.2588H31.8339V33.7944Z" fill="#298A97"/>
<path d="M20.2168 33.7944H18.6548V35.2588H20.2168V33.7944Z" fill="#298A97"/>
<path d="M-0.700928 16.951H23.2191V0H-0.700928V16.951ZM0.763428 1.46436H21.7547V15.4866H0.763428V1.46436Z" fill="#298A97"/>
<path d="M1.62207 2.32275V14.6278H20.8961V2.32275H1.62207ZM19.4317 13.1635H3.08643V3.78711H19.4316V13.1635H19.4317Z" fill="#298A97"/>
<path d="M24.0779 17.0354V27.7917H37.9316V17.0354H24.0779ZM36.4672 26.3274H25.5422V18.4998H36.4672V26.3274Z" fill="#298A97"/>
<path d="M26.4006 19.3584V25.4688H35.6083V19.3584H26.4006ZM34.1441 24.0044H27.8651V20.8229H34.1441V24.0044Z" fill="#298A97"/>
<path d="M31.0047 3.09741C27.6122 3.09741 24.8523 5.85737 24.8523 9.24985C24.8523 12.6424 27.6123 15.4023 31.0047 15.4023C34.3972 15.4023 37.1572 12.6422 37.1572 9.24985C37.1573 5.85737 34.3973 3.09741 31.0047 3.09741ZM31.7368 13.8806V13.0981H30.2724V13.8805C28.3028 13.5702 26.7378 12.0289 26.3902 10.0717H27.246V8.60728H26.3617C26.643 6.56548 28.243 4.93901 30.2724 4.61929V5.67847H31.7368V4.61938C33.7663 4.93901 35.3665 6.56558 35.6477 8.60737H34.6655V10.0717H35.6193C35.2716 12.029 33.7066 13.5704 31.7368 13.8806Z" fill="#298A97"/>
<path d="M30.2724 6.84985V8.60708H27.8318V10.0714H31.7368V6.84985H30.2724Z" fill="#298A97"/>
<path d="M44.916 46.1672V46.1671V28.9131H43.4517V46.1671H39.5645V49.9544H48.7721V46.1671H44.916V46.1672ZM47.3078 48.4901H41.0289V47.6315H47.3078V48.4901Z" fill="#298A97"/>
<path d="M41.113 10.0662V27.0171H43.4515V28.2295H44.9159V27.0172H47.2234V10.0662H41.113ZM45.7591 23.2507H43.4516V24.7151H45.7591V25.5529H42.5775V11.5305H45.7591V23.2507Z" fill="#298A97"/>
<path d="M9.57958 5.63526L8.03101 7.18384L9.06645 8.21928L10.615 6.67071L9.57958 5.63526Z" fill="#298A97"/>
<path d="M13.4512 4.86053L8.03101 10.2808L9.06645 11.3162L14.4867 5.89598L13.4512 4.86053Z" fill="#298A97"/>
<path d="M13.4509 8.73267L11.9023 10.2812L12.9378 11.3167L14.4864 9.76812L13.4509 8.73267Z" fill="#298A97"/>
</g>
<defs>
<clipPath id="clip0">
<rect width="48" height="50" rx="5" fill="white"/>
</clipPath>
</defs>
</svg>
