<svg width="48" height="50" viewBox="0 0 48 50" fill="none" xmlns="http://www.w3.org/2000/svg">
<path d="M43.5 5.46875H44.25C44.4489 5.46875 44.6397 5.38644 44.7803 5.23993C44.921 5.09341 45 4.8947 45 4.6875V1.5625C45 1.3553 44.921 1.15659 44.7803 1.01007C44.6397 0.86356 44.4489 0.78125 44.25 0.78125H3.75C3.55109 0.78125 3.36032 0.86356 3.21967 1.01007C3.07902 1.15659 3 1.3553 3 1.5625V4.6875C3 4.8947 3.07902 5.09341 3.21967 5.23993C3.36032 5.38644 3.55109 5.46875 3.75 5.46875H4.5V44.5312H3.75C3.55109 44.5312 3.36032 44.6136 3.21967 44.7601C3.07902 44.9066 3 45.1053 3 45.3125V48.4375C3 48.6447 3.07902 48.8434 3.21967 48.9899C3.36032 49.1364 3.55109 49.2188 3.75 49.2188H44.25C44.4489 49.2188 44.6397 49.1364 44.7803 48.9899C44.921 48.8434 45 48.6447 45 48.4375V45.3125C45 45.1053 44.921 44.9066 44.7803 44.7601C44.6397 44.6136 44.4489 44.5312 44.25 44.5312H43.5V5.46875ZM43.5 47.6562H4.5V46.0938H43.5V47.6562ZM38.0325 34.2676C38.5894 32.4316 39.5297 30.4688 40.5 30.4688H42V44.5312H36.75C36.75 40.6406 37.2056 36.9961 38.0325 34.2676ZM36.6019 33.7969C35.73 36.6738 35.25 40.4854 35.25 44.5312H30.0094C30.0994 40.7686 30.8391 37.2705 32.1159 34.6104C33.3984 31.9395 35.0438 30.4688 36.75 30.4688H38.0878C37.5272 31.2764 37.0284 32.3916 36.6019 33.7969ZM37.5 28.9062V27.3438H42V28.9062H37.5ZM40.5 25.7812C39.3994 25.7812 37.2994 24.9365 35.6006 19.2783C34.4812 15.5527 33.8175 10.5586 33.7556 5.46875H42V25.7812H40.5ZM34.1691 19.7451C34.9903 22.4805 36.0225 24.5039 37.2262 25.7734C34.5347 25.6201 31.7962 23.2217 29.6719 19.1396C27.6422 15.2363 26.3878 10.1816 26.2612 5.46875H32.2556C32.3175 10.7119 33.0066 15.876 34.1691 19.7451ZM28.3538 19.8838C30.4847 23.9805 33.1566 26.5088 36 27.1689V28.9717C31.8666 29.6807 28.6969 36.2051 28.5094 44.5312H19.4906C19.3031 36.2051 16.1334 29.6807 12 28.9717V27.1689C14.8434 26.5088 17.5153 23.9805 19.6462 19.8838C21.7903 15.7637 23.1122 10.4307 23.2388 5.46875H24.7612C24.8878 10.4307 26.2097 15.7637 28.3538 19.8838ZM17.9906 44.5312H12.75C12.75 40.4854 12.27 36.6738 11.3981 33.7969C10.9716 32.3916 10.4728 31.2764 9.91219 30.4688H11.25C12.9563 30.4688 14.6016 31.9395 15.8841 34.6104C17.1609 37.2705 17.9006 40.7686 17.9906 44.5312ZM18.3281 19.1396C16.2037 23.2217 13.4653 25.6201 10.7737 25.7734C11.9775 24.5039 13.0097 22.4805 13.8309 19.7451C14.9934 15.876 15.6825 10.7119 15.7444 5.46875H21.7388C21.6122 10.1816 20.3578 15.2363 18.3281 19.1396ZM12.3994 19.2783C10.7006 24.9365 8.60063 25.7812 7.5 25.7812H6V5.46875H14.2444C14.1825 10.5586 13.5187 15.5527 12.3994 19.2783ZM10.5 27.3438V28.9062H6V27.3438H10.5ZM7.5 30.4688C8.47031 30.4688 9.41062 32.4316 9.9675 34.2676C10.7944 36.9961 11.25 40.6406 11.25 44.5312H6V30.4688H7.5ZM4.5 3.90625V2.34375H43.5V3.90625H4.5Z" fill="#298A97"/>
</svg>
