<svg width="50" height="50" viewBox="0 0 50 50" fill="none" xmlns="http://www.w3.org/2000/svg">
<g clip-path="url(#clip0)">
<path d="M49.3938 27.8411C49.1145 26.8292 48.8515 25.8727 48.8515 25C48.8515 24.1272 49.1145 23.1708 49.3938 22.1589C49.8384 20.5482 50.297 18.882 49.7482 17.2626C49.1786 15.5779 47.7592 14.4769 46.3865 13.4139C45.5637 12.7759 44.7866 12.1738 44.2823 11.5108C43.7693 10.8348 43.4063 9.93269 43.0237 8.97733C42.3922 7.40789 41.7401 5.78411 40.2793 4.76462C38.8425 3.76035 37.0492 3.66362 35.3178 3.57124C34.2374 3.51363 33.2158 3.4582 32.3604 3.19192C31.5605 2.94303 30.7323 2.42676 29.8563 1.88007C28.4466 0.999701 26.8478 0.00195312 24.999 0.00195312C23.1503 0.00195312 21.5515 0.999701 20.1418 1.88115C19.2658 2.42785 18.4398 2.9452 17.6388 3.19301C16.7823 3.45929 15.7606 3.51472 14.6803 3.57232C12.9478 3.6658 11.1567 3.76144 9.71873 4.76571C8.25797 5.78519 7.60585 7.40789 6.97438 8.97733C6.58963 9.93269 6.22661 10.8359 5.71361 11.5119C5.2093 12.1771 4.43219 12.7792 3.60943 13.4183C2.2378 14.4823 0.82052 15.5812 0.251 17.2636C-0.297869 18.8842 0.16079 20.5492 0.604233 22.1611C0.883559 23.173 1.14658 24.1283 1.14658 25.0011C1.14658 25.8738 0.883559 26.8303 0.604233 27.8422C0.16079 29.4529 -0.297869 31.1191 0.251 32.7407C0.82052 34.4232 2.23889 35.5242 3.61052 36.5871C4.43328 37.224 5.21039 37.8272 5.71361 38.4902C6.2277 39.1663 6.59071 40.0684 6.97438 41.0248C7.60585 42.5942 8.25906 44.218 9.7209 45.2397C11.1567 46.2418 12.9489 46.3374 14.6803 46.4298C15.7606 46.4874 16.7823 46.5429 17.6377 46.8091C18.4376 47.058 19.2647 47.5743 20.1396 48.1199C21.5504 48.9992 23.1492 49.998 24.999 49.998C26.8489 49.998 28.4488 48.9992 29.8606 48.1188C30.7355 47.5732 31.5616 47.0569 32.3626 46.808C33.2179 46.5418 34.2396 46.4863 35.32 46.4287C37.0524 46.3363 38.8436 46.2407 40.2793 45.2386C41.7434 44.2169 42.3955 42.591 43.027 41.0205C43.4106 40.0662 43.7725 39.1641 44.2834 38.4902C44.7877 37.8272 45.5648 37.224 46.3876 36.5871C47.7603 35.5231 49.1786 34.4232 49.7492 32.7396C50.2981 31.118 49.8384 29.4529 49.3938 27.8411ZM47.6895 32.0429C47.3297 33.1059 46.2244 33.9623 45.0549 34.8688C44.1582 35.5644 43.2301 36.2839 42.5519 37.1751C41.8639 38.0837 41.4291 39.1641 41.0085 40.2107C40.4727 41.5454 39.9662 42.8051 39.0347 43.4551C38.1066 44.1028 36.6969 44.1778 35.2035 44.2572C34.0373 44.3191 32.8298 44.3832 31.7147 44.731C30.6484 45.0647 29.6616 45.6788 28.7084 46.2744C27.4313 47.0722 26.226 47.8243 24.9989 47.8243C23.7718 47.8243 22.5676 47.0722 21.2905 46.2744C20.3384 45.6799 19.3526 45.0647 18.2853 44.731C17.1702 44.3843 15.9627 44.3191 14.7964 44.2572C13.3031 44.1778 11.8923 44.1017 10.9652 43.4551C10.0349 42.8051 9.5273 41.5454 8.99148 40.2118C8.57086 39.1652 8.13502 38.0837 7.44595 37.1751C6.76883 36.2839 5.84064 35.5644 4.94288 34.8677C3.7745 33.9612 2.67024 33.1059 2.31048 32.0429C1.97464 31.0528 2.32787 29.7724 2.70067 28.4182C3.00499 27.3107 3.32019 26.1673 3.32019 24.9989C3.32019 23.8305 3.00499 22.6882 2.70067 21.5807C2.32679 20.2264 1.97464 18.9472 2.31048 17.9571C2.67024 16.8941 3.77341 16.0387 4.9418 15.1323C5.83955 14.4356 6.76883 13.715 7.44486 12.8227C8.13611 11.9141 8.57086 10.8315 8.99256 9.78488C9.5273 8.45129 10.0338 7.19269 10.9631 6.54492C11.8912 5.89605 13.3031 5.82106 14.7975 5.74172C15.9627 5.67868 17.1702 5.61455 18.2842 5.26676C19.3526 4.93417 20.3395 4.31792 21.2938 3.72231C22.5687 2.92781 23.7729 2.17569 24.9989 2.17569C26.2249 2.17569 27.4302 2.92781 28.7062 3.72449C29.6605 4.32118 30.6463 4.93635 31.7147 5.26893C32.8287 5.61564 34.0351 5.67977 35.2013 5.74281C36.6958 5.82215 38.1066 5.89931 39.0347 6.54709C39.9651 7.19704 40.4716 8.45564 41.0063 9.78705C41.428 10.8348 41.8617 11.9162 42.5529 12.8249C43.2301 13.7161 44.1582 14.4356 45.0549 15.1312C46.2244 16.0387 47.3297 16.8952 47.6895 17.9603C48.0253 18.9483 47.671 20.2275 47.2982 21.5818C46.9928 22.6893 46.6776 23.8327 46.6776 25.0011C46.6776 26.1695 46.9917 27.3128 47.2982 28.4193C47.6722 29.7735 48.0253 31.0528 47.6895 32.0429Z" fill="#298A97"/>
<path d="M24.9989 8.69702C16.0094 8.69702 8.6958 16.0106 8.6958 25.0001C8.6958 33.9896 16.0094 41.3032 24.9989 41.3032C33.9884 41.3032 41.3019 33.9896 41.3019 25.0001C41.3019 16.0106 33.9884 8.69702 24.9989 8.69702ZM24.9989 39.1294C17.2082 39.1294 10.8695 32.7908 10.8695 25.0001C10.8695 17.2094 17.2082 10.8708 24.9989 10.8708C29.017 10.8708 32.6396 12.5652 35.2155 15.2672L24.8576 29.8432L19.2461 24.2317C18.8211 23.8067 18.1342 23.8067 17.7092 24.2317C17.2843 24.6566 17.2843 25.3435 17.7092 25.7685L24.2304 32.2897C24.4348 32.4951 24.7119 32.6082 24.9989 32.6082C25.0282 32.6082 25.0597 32.6071 25.0902 32.6038C25.4086 32.5777 25.6999 32.4115 25.8847 32.1506L36.6414 17.0127C38.2065 19.2864 39.1282 22.0362 39.1282 25.0001C39.1282 32.7908 32.7896 39.1294 24.9989 39.1294Z" fill="#298A97"/>
</g>
<defs>
<clipPath id="clip0">
<rect width="50" height="50" fill="white"/>
</clipPath>
</defs>
</svg>
