<svg width="50" height="50" viewBox="0 0 50 50" fill="none" xmlns="http://www.w3.org/2000/svg">
<g clip-path="url(#clip0)">
<path d="M47.4983 16.9886H42.7001L41.3534 6.8268C41.1606 5.46245 39.9076 4.50587 38.5407 4.67953L2.17221 9.49942C1.51312 9.58781 0.916267 9.93492 0.513602 10.4642C0.109165 10.99 -0.0674113 11.656 0.0232743 12.313L3.09199 35.4559C3.25502 36.7023 4.3175 37.6342 5.57448 37.6332C5.68216 37.633 5.78963 37.6257 5.89637 37.6116L8.30548 37.2938V42.8392C8.30548 44.2209 9.4255 45.3409 10.8071 45.3409H47.4983C48.88 45.3409 50 44.2209 50 42.8392V19.4903C50 18.1086 48.88 16.9886 47.4983 16.9886ZM41.0182 16.9886H34.5063L40.9056 16.1405L41.0182 16.9886ZM1.67438 12.0878C1.64509 11.8702 1.7045 11.6498 1.83949 11.4766C1.97364 11.2982 2.17367 11.1811 2.39486 11.1514L38.7567 6.33314C39.2139 6.27518 39.6334 6.59415 39.6998 7.05028L40.0292 9.53361L2.00376 14.5761L1.67438 12.0878ZM8.30548 35.6119L5.68206 35.9579C5.2255 36.0186 4.80626 35.6977 4.7456 35.2411C4.7456 35.241 4.7456 35.2409 4.7456 35.2408L2.88519 21.1831L8.30548 20.4668V35.6119ZM8.41555 18.7706L2.6617 19.5295L2.22391 16.2306L40.2493 11.1872L40.4995 13.0985L40.6846 14.4869L21.8145 16.9886H10.8071C9.70433 16.9906 8.73284 17.7144 8.41555 18.7706ZM48.3322 42.8392C48.3322 43.2997 47.9588 43.6731 47.4983 43.6731H10.8071C10.3466 43.6731 9.97326 43.2997 9.97326 42.8392V19.5153C9.97326 19.5069 9.97743 19.4986 9.97743 19.4903C9.97743 19.0298 10.3508 18.6564 10.8113 18.6564H47.4983C47.9588 18.6564 48.3322 19.0298 48.3322 19.4903V42.8392Z" fill="#298A97"/>
<path d="M36.6127 29.5163C36.9479 29.2688 37.2442 28.9726 37.4916 28.6373C38.8626 30.4828 41.4702 30.8675 43.3157 29.4963C45.1612 28.1253 45.5458 25.5177 44.1747 23.6722C43.388 22.6134 42.1461 21.9901 40.8271 21.9919C39.5096 21.9956 38.272 22.624 37.4916 23.6856C36.1242 21.8328 33.5138 21.4393 31.6609 22.8067C29.8081 24.174 29.4146 26.7844 30.782 28.6373C32.1494 30.49 34.7599 30.8836 36.6127 29.5163ZM40.8271 23.6597C42.2088 23.6597 43.3288 24.7797 43.3288 26.1614C43.3288 27.5431 42.2088 28.6631 40.8271 28.6631C39.4455 28.6631 38.3255 27.5431 38.3255 26.1614C38.3255 24.7797 39.4455 23.6597 40.8271 23.6597ZM34.156 23.6597C35.5377 23.6597 36.6577 24.7797 36.6577 26.1614C36.6577 27.5431 35.5377 28.6631 34.156 28.6631C32.7744 28.6631 31.6543 27.5431 31.6543 26.1614C31.6543 24.7797 32.7744 23.6597 34.156 23.6597Z" fill="#298A97"/>
<path d="M14.9766 22.8259H13.3088V24.4937H14.9766V22.8259Z" fill="#298A97"/>
<path d="M26.6512 22.8259H16.6445V24.4937H26.6512V22.8259Z" fill="#298A97"/>
<path d="M26.6511 26.1614H13.3088V27.8292H26.6511V26.1614Z" fill="#298A97"/>
<path d="M44.1628 33.6665H14.1427C13.6822 33.6665 13.3088 34.0399 13.3088 34.5004V39.5037C13.3088 39.9643 13.6822 40.3376 14.1427 40.3376H44.1628C44.6233 40.3376 44.9967 39.9643 44.9967 39.5037V34.5004C44.9967 34.0399 44.6234 33.6665 44.1628 33.6665ZM43.3289 38.6698H14.9766V35.3343H43.3289V38.6698Z" fill="#298A97"/>
</g>
<defs>
<clipPath id="clip0">
<rect width="50" height="50" fill="white"/>
</clipPath>
</defs>
</svg>
